<svg width="579" height="647" viewBox="0 0 579 647" fill="none" xmlns="http://www.w3.org/2000/svg">
<path d="M435 93.879C448.333 65.5457 457 26.2242 414 10.0001C393 2.07665 356 5.80676 336 56.1149M435 93.879C411.312 76.863 379.078 62.8185 336 56.1149M435 93.879C435.305 94.098 435.608 94.3174 435.91 94.5373M336 56.1149C315.531 52.9295 292.613 51.4016 267 52C250.667 30.6667 209.2 -6.20001 174 17C130 46 126 102 146 126L44 249H73L8 317H35L8 390L7 472L283 640L470 521C458.333 514.333 447.09 516 435 495L461 489L424 455C416 402 437.2 356.8 482 352C526.8 347.2 556.667 298 566 274C575.333 251.667 581.6 206 532 202L493 185C490.992 161.905 477.186 127.465 442.268 99.4015C440.222 97.7571 438.103 96.1344 435.91 94.5373M336 56.1149C379.632 62.9047 412.14 77.2256 435.91 94.5373" stroke="white" stroke-width="13" stroke-linejoin="round"/>
<ellipse cx="381" cy="169" rx="19" ry="17" fill="white"/>
<path d="M439 166C416.6 210.8 409 256.667 408 274C415 287 444 308 475 304C499.8 300.8 520.667 282.667 528 274C526.333 266.333 520.6 250.6 511 249C501.4 247.4 502.333 227.667 504 218H528L566 229.5L560 206L504 188.5L439 166Z" fill="white"/>
</svg>
